<?xml version="1.0" encoding="utf-8"?>
<!-- Generator: Adobe Illustrator 24.0.0, SVG Export Plug-In . SVG Version: 6.00 Build 0)  -->
<svg version="1.0" id="Layer_1" xmlns="http://www.w3.org/2000/svg" xmlns:xlink="http://www.w3.org/1999/xlink" x="0px" y="0px"
	 viewBox="0 0 1920 1080" enable-background="new 0 0 1920 1080" xml:space="preserve">
<g>
	<g>
		<defs>
			<path id="SVGID_1_" d="M842.8,312L842.8,312c0,0.1,76.7,347,286.9,249.2c-22.6,26.6-63.7,55.3-122.6,89.8
				C787.4,709.9,842.8,312.2,842.8,312"/>
		</defs>
		<clipPath id="SVGID_2_">
			<use xlink:href="#SVGID_1_"  overflow="visible"/>
		</clipPath>
		<linearGradient id="SVGID_3_" gradientUnits="userSpaceOnUse" x1="804.5853" y1="708.0292" x2="1189.1765" y2="215.8653">
			<stop  offset="0" style="stop-color:#415EAB"/>
			<stop  offset="0.57" style="stop-color:#8B5BA6"/>
			<stop  offset="1" style="stop-color:#CC7DB4"/>
		</linearGradient>
		<rect x="787.4" y="312" clip-path="url(#SVGID_2_)" fill="url(#SVGID_3_)" width="342.4" height="397.9"/>
	</g>
	<defs>
		<filter id="Adobe_OpacityMaskFilter" filterUnits="userSpaceOnUse" x="842.8" y="312" width="286.9" height="311.4">
			<feColorMatrix  type="matrix" values="1 0 0 0 0  0 1 0 0 0  0 0 1 0 0  0 0 0 1 0"/>
		</filter>
	</defs>
	<mask maskUnits="userSpaceOnUse" x="842.8" y="312" width="286.9" height="311.4" id="SVGID_4_">
		<g filter="url(#Adobe_OpacityMaskFilter)">
			
				<linearGradient id="SVGID_5_" gradientUnits="userSpaceOnUse" x1="-205.6151" y1="126.5391" x2="24.3904" y2="984.7515" gradientTransform="matrix(1 0 0 1 1010.9049 -334.1619)">
				<stop  offset="0" style="stop-color:#FFFFFF"/>
				<stop  offset="1" style="stop-color:#000000"/>
			</linearGradient>
			<rect x="842.8" y="312" fill="url(#SVGID_5_)" width="286.9" height="311.4"/>
		</g>
	</mask>
	<path mask="url(#SVGID_4_)" fill-rule="evenodd" clip-rule="evenodd" fill="#FBCBBC" d="M842.8,312L842.8,312
		c0,0.1,76.7,347,286.9,249.2c-16.3,19.2-42.2,39.5-77.4,62.1C870.4,612.6,842.8,312,842.8,312"/>
	<defs>
		<filter id="Adobe_OpacityMaskFilter_1_" filterUnits="userSpaceOnUse" x="836.6" y="312.1" width="194.4" height="344.9">
			<feColorMatrix  type="matrix" values="1 0 0 0 0  0 1 0 0 0  0 0 1 0 0  0 0 0 1 0"/>
		</filter>
	</defs>
	<mask maskUnits="userSpaceOnUse" x="836.6" y="312.1" width="194.4" height="344.9" id="SVGID_6_">
		<g filter="url(#Adobe_OpacityMaskFilter_1_)">
			
				<linearGradient id="SVGID_7_" gradientUnits="userSpaceOnUse" x1="-983.421" y1="1575.9478" x2="76.914" y2="684.9273" gradientTransform="matrix(1 0 0 1 1009.9545 -329.0576)">
				<stop  offset="0" style="stop-color:#FFFFFF"/>
				<stop  offset="1" style="stop-color:#000000"/>
			</linearGradient>
			<rect x="836.6" y="312.1" fill="url(#SVGID_7_)" width="194.4" height="344.9"/>
		</g>
	</mask>
	<path mask="url(#SVGID_6_)" fill-rule="evenodd" clip-rule="evenodd" fill="#232463" d="M1030.9,636.8c-7.6,4.6-15.5,9.4-23.8,14.2
		c-219.6,58.8-164.4-338.3-164.3-339C842.8,312.2,823.8,640.3,1030.9,636.8"/>
	<g>
		<defs>
			<path id="SVGID_8_" d="M998.1,656.3c-194.4,112.2-232.7,75.8-232.7-148.7c0-136.7,18.8-195.7,77.4-195.6
				c0,0.1-55.5,397.9,164.3,339C1004.2,652.8,1001.2,654.5,998.1,656.3"/>
		</defs>
		<clipPath id="SVGID_9_">
			<use xlink:href="#SVGID_8_"  overflow="visible"/>
		</clipPath>
		<linearGradient id="SVGID_10_" gradientUnits="userSpaceOnUse" x1="1028.8861" y1="828.6283" x2="739.6381" y2="243.5568">
			<stop  offset="0" style="stop-color:#35459C"/>
			<stop  offset="1" style="stop-color:#84D1DC"/>
		</linearGradient>
		<rect x="765.5" y="311.9" clip-path="url(#SVGID_9_)" fill="url(#SVGID_10_)" width="241.7" height="456.6"/>
	</g>
	<defs>
		<filter id="Adobe_OpacityMaskFilter_2_" filterUnits="userSpaceOnUse" x="765.5" y="380.4" width="155.2" height="337.4">
			<feColorMatrix  type="matrix" values="1 0 0 0 0  0 1 0 0 0  0 0 1 0 0  0 0 0 1 0"/>
		</filter>
	</defs>
	<mask maskUnits="userSpaceOnUse" x="765.5" y="380.4" width="155.2" height="337.4" id="SVGID_11_">
		<g filter="url(#Adobe_OpacityMaskFilter_2_)">
			
				<linearGradient id="SVGID_12_" gradientUnits="userSpaceOnUse" x1="-156.0607" y1="1984.4319" x2="-156.0607" y2="681.334" gradientTransform="matrix(1 0 0 1 999.1369 -319.8008)">
				<stop  offset="0" style="stop-color:#FFFFFF"/>
				<stop  offset="1" style="stop-color:#000000"/>
			</linearGradient>
			<rect x="765.5" y="380.4" fill="url(#SVGID_12_)" width="155.2" height="337.4"/>
		</g>
	</mask>
	<path mask="url(#SVGID_11_)" fill-rule="evenodd" clip-rule="evenodd" fill="#232463" d="M920.7,696.6
		c-127.6,56.7-155.2,1.7-155.2-189c0-54.2,3-96.2,10.2-127.2C775.3,383.2,740.6,686.2,920.7,696.6"/>
	<defs>
		<filter id="Adobe_OpacityMaskFilter_3_" filterUnits="userSpaceOnUse" x="808.9" y="312.1" width="198.3" height="400.6">
			<feColorMatrix  type="matrix" values="1 0 0 0 0  0 1 0 0 0  0 0 1 0 0  0 0 0 1 0"/>
		</filter>
	</defs>
	<mask maskUnits="userSpaceOnUse" x="808.9" y="312.1" width="198.3" height="400.6" id="SVGID_13_">
		<g filter="url(#Adobe_OpacityMaskFilter_3_)">
			
				<linearGradient id="SVGID_14_" gradientUnits="userSpaceOnUse" x1="-12.1733" y1="164.7303" x2="-120.9942" y2="1014.7867" gradientTransform="matrix(1 0 0 1 1005.7436 -320.5942)">
				<stop  offset="0" style="stop-color:#FFFFFF"/>
				<stop  offset="1" style="stop-color:#000000"/>
			</linearGradient>
			<rect x="808.9" y="312.1" fill="url(#SVGID_14_)" width="198.3" height="400.6"/>
		</g>
	</mask>
	<path mask="url(#SVGID_13_)" fill-rule="evenodd" clip-rule="evenodd" fill="#84D1DC" d="M842.8,312.1 M998.1,656.3
		c-49.9,28.8-89.5,47.8-120.8,56.4c-81.4-76.7-86.6-298.8-34.5-400.6c-0.1,0.7-55.3,397.8,164.3,339
		C1004.2,652.8,1001.2,654.5,998.1,656.3z"/>
	<g>
		<defs>
			<path id="SVGID_15_" d="M842.8,312c0,0.1,76.7,347,286.9,249.2c48.7-57.4,11.5-105.3-119.2-180.8
				C934.5,336.6,880.5,312.1,842.8,312"/>
		</defs>
		<clipPath id="SVGID_16_">
			<use xlink:href="#SVGID_15_"  overflow="visible"/>
		</clipPath>
		<linearGradient id="SVGID_17_" gradientUnits="userSpaceOnUse" x1="934.3988" y1="770.1617" x2="1078.9905" y2="230.4591">
			<stop  offset="0" style="stop-color:#ED1B68"/>
			<stop  offset="1" style="stop-color:#F6EB16"/>
		</linearGradient>
		<rect x="842.8" y="312" clip-path="url(#SVGID_16_)" fill="url(#SVGID_17_)" width="335.6" height="347"/>
	</g>
	<defs>
		<filter id="Adobe_OpacityMaskFilter_4_" filterUnits="userSpaceOnUse" x="866.3" y="314.7" width="195.8" height="147.2">
			<feColorMatrix  type="matrix" values="1 0 0 0 0  0 1 0 0 0  0 0 1 0 0  0 0 0 1 0"/>
		</filter>
	</defs>
	<mask maskUnits="userSpaceOnUse" x="866.3" y="314.7" width="195.8" height="147.2" id="SVGID_18_">
		<g filter="url(#Adobe_OpacityMaskFilter_4_)">
			
				<linearGradient id="SVGID_19_" gradientUnits="userSpaceOnUse" x1="20.4688" y1="214.0939" x2="-74.8732" y2="932.5796" gradientTransform="matrix(1 0 0 1 1014.4774 -358.7196)">
				<stop  offset="0" style="stop-color:#FFFFFF"/>
				<stop  offset="1" style="stop-color:#000000"/>
			</linearGradient>
			<rect x="866.3" y="314.7" fill="url(#SVGID_19_)" width="195.8" height="147.2"/>
		</g>
	</mask>
	<path mask="url(#SVGID_18_)" fill-rule="evenodd" clip-rule="evenodd" fill="#F6EB16" d="M1010.5,380.5
		C949.1,345,902,322.2,866.3,314.7c0.1,0.2,40.9,102.8,132.2,138.1C1085.7,486.5,1076.8,418.7,1010.5,380.5"/>
	<defs>
		<filter id="Adobe_OpacityMaskFilter_5_" filterUnits="userSpaceOnUse" x="842.8" y="312.1" width="307.4" height="266.6">
			<feColorMatrix  type="matrix" values="1 0 0 0 0  0 1 0 0 0  0 0 1 0 0  0 0 0 1 0"/>
		</filter>
	</defs>
	<mask maskUnits="userSpaceOnUse" x="842.8" y="312.1" width="307.4" height="266.6" id="SVGID_20_">
		<g filter="url(#Adobe_OpacityMaskFilter_5_)">
			
				<linearGradient id="SVGID_21_" gradientUnits="userSpaceOnUse" x1="-135.1403" y1="1237.0593" x2="2.9412" y2="721.8186" gradientTransform="matrix(1 0 0 1 1010.9055 -340.9727)">
				<stop  offset="0" style="stop-color:#FFFFFF"/>
				<stop  offset="1" style="stop-color:#000000"/>
			</linearGradient>
			<rect x="842.8" y="312.1" fill="url(#SVGID_21_)" width="307.4" height="266.6"/>
		</g>
	</mask>
	<path mask="url(#SVGID_20_)" fill-rule="evenodd" clip-rule="evenodd" fill="#C11E68" d="M842.8,312.1
		c0.1,0.4,76.8,346.9,286.9,249.2c20.2-23.8,25.6-46,15.7-69.1C1082.6,554.1,925.1,511.2,842.8,312.1"/>
	<path opacity="0.5" fill-rule="evenodd" clip-rule="evenodd" fill="#84D1DC" d="M842.8,312.1c-0.1,0.5-55.4,397.8,164.3,339
		c-1.2,0.7-2.4,1.4-3.6,2.1c-146.8,38.3-170.3-128-169.7-241.2C834,381.5,834.8,341.5,842.8,312.1"/>
	<defs>
		<filter id="Adobe_OpacityMaskFilter_6_" filterUnits="userSpaceOnUse" x="836.6" y="312.1" width="194.4" height="344.9">
			<feColorMatrix  type="matrix" values="1 0 0 0 0  0 1 0 0 0  0 0 1 0 0  0 0 0 1 0"/>
		</filter>
	</defs>
	<mask maskUnits="userSpaceOnUse" x="836.6" y="312.1" width="194.4" height="344.9" id="SVGID_22_">
		<g filter="url(#Adobe_OpacityMaskFilter_6_)">
			
				<linearGradient id="SVGID_23_" gradientUnits="userSpaceOnUse" x1="-335.1134" y1="1169.8759" x2="-43.1045" y2="768.0589" gradientTransform="matrix(1 0 0 1 1009.9545 -329.0576)">
				<stop  offset="0" style="stop-color:#FFFFFF"/>
				<stop  offset="1" style="stop-color:#000000"/>
			</linearGradient>
			<rect x="836.6" y="312.1" fill="url(#SVGID_23_)" width="194.4" height="344.9"/>
		</g>
	</mask>
	<path mask="url(#SVGID_22_)" fill-rule="evenodd" clip-rule="evenodd" fill="#232463" d="M1030.9,636.8
		c-7.6,4.6-15.5,9.4-23.8,14.2c-219.6,58.8-164.4-338.3-164.3-339c-5,57.6-1.1,138.2,9.1,195.9c15.3,87.4,57.5,163.8,162.7,135.6
		c3.9-2.3,7.8-4.6,11.5-6.8C1027.7,636.8,1029.3,636.9,1030.9,636.8"/>
	<path opacity="0.5" fill-rule="evenodd" clip-rule="evenodd" fill="#FBCBBC" d="M842.8,312L842.8,312c0,0.1,76.7,347,286.9,249.2
		c-0.6,0.7-1.3,1.5-1.9,2.2l-0.4,0.1C970.1,636.8,887.6,460.8,856,367.7C851.2,353.6,843.1,323.3,842.8,312"/>
	<defs>
		<filter id="Adobe_OpacityMaskFilter_7_" filterUnits="userSpaceOnUse" x="842.8" y="312.1" width="292.2" height="266.6">
			<feColorMatrix  type="matrix" values="1 0 0 0 0  0 1 0 0 0  0 0 1 0 0  0 0 0 1 0"/>
		</filter>
	</defs>
	<mask maskUnits="userSpaceOnUse" x="842.8" y="312.1" width="292.2" height="266.6" id="SVGID_24_">
		<g filter="url(#Adobe_OpacityMaskFilter_7_)">
			
				<linearGradient id="SVGID_25_" gradientUnits="userSpaceOnUse" x1="-21.9458" y1="1161.0574" x2="-21.9458" y2="555.7336" gradientTransform="matrix(1 0 0 1 1010.9055 -340.9727)">
				<stop  offset="0" style="stop-color:#FFFFFF"/>
				<stop  offset="1" style="stop-color:#000000"/>
			</linearGradient>
			<rect x="842.8" y="312.1" fill="url(#SVGID_25_)" width="292.2" height="266.6"/>
		</g>
	</mask>
	<path mask="url(#SVGID_24_)" fill-rule="evenodd" clip-rule="evenodd" fill="#C11E68" d="M842.8,312.1
		c0.1,0.4,76.8,346.9,286.9,249.2c1.9-2.3,3.7-4.5,5.3-6.7l-2.3,0.9C998.2,618,918.4,498.4,878.3,404.2
		C865.5,373.9,853.2,343.5,842.8,312.1"/>
</g>
</svg>
